<svg width="101" height="101" viewBox="0 0 101 101" fill="none" xmlns="http://www.w3.org/2000/svg">
<path d="M99.869 49.6647L95.671 47.0659C95.6355 46.6579 95.5957 46.2503 95.5514 45.8432L99.1593 42.478C99.3397 42.3104 99.4741 42.0993 99.5497 41.865C99.6252 41.6306 99.6394 41.3808 99.5909 41.1393C99.5435 40.8977 99.435 40.6724 99.2756 40.4847C99.1163 40.297 98.9115 40.1534 98.6807 40.0675L94.0686 38.3428C93.9528 37.9446 93.8324 37.5477 93.7073 37.1522L96.5843 33.1565C96.7284 32.9568 96.819 32.7235 96.8476 32.4789C96.8761 32.2342 96.8417 31.9863 96.7475 31.7588C96.6533 31.5312 96.5024 31.3315 96.3093 31.1786C96.1162 31.0258 95.8872 30.9248 95.644 30.8854L90.7807 30.0944C90.5917 29.7257 90.3948 29.3624 90.1964 29.0022L92.2397 24.5167C92.3426 24.2928 92.3863 24.0464 92.3666 23.8008C92.3469 23.5553 92.2645 23.3189 92.1272 23.1143C91.9911 22.9091 91.8045 22.7423 91.5853 22.63C91.3661 22.5177 91.1218 22.4636 90.8757 22.4729L85.9397 22.6448C85.6848 22.3255 85.4249 22.0102 85.16 21.6991L86.2944 16.8913C86.3512 16.6515 86.3456 16.4012 86.2781 16.1642C86.2107 15.9272 86.0837 15.7114 85.9093 15.5374C85.7352 15.3632 85.5196 15.2363 85.2828 15.1689C85.0459 15.1015 84.7958 15.0958 84.5561 15.1522L79.7495 16.2854C79.4375 16.0209 79.1216 15.7609 78.8018 15.5057L78.9745 10.5702C78.9837 10.3241 78.9297 10.0798 78.8175 9.86061C78.7054 9.64142 78.5388 9.45467 78.3339 9.31822C78.1292 9.18121 77.8929 9.09887 77.6475 9.07904C77.402 9.05921 77.1555 9.10255 76.9315 9.20494L72.4472 11.2495C72.0854 11.0498 71.7213 10.8545 71.355 10.6635L70.562 5.79947C70.5223 5.55659 70.4213 5.32787 70.2684 5.13497C70.1156 4.94208 69.916 4.79142 69.6886 4.69725C69.4613 4.60308 69.2136 4.56854 68.9691 4.59688C68.7247 4.62523 68.4915 4.71554 68.2917 4.85924L64.2933 7.73619C63.8999 7.61119 63.5042 7.49049 63.105 7.37604L61.3804 2.76314C61.2946 2.53205 61.151 2.32682 60.9632 2.16706C60.7755 2.00731 60.5499 1.89836 60.3081 1.85064C60.0668 1.80316 59.8174 1.81791 59.5834 1.8935C59.3494 1.96908 59.1385 2.10302 58.9706 2.28267L55.6054 5.89322C55.1984 5.84761 54.7908 5.80777 54.3827 5.77369L51.7839 1.57447C51.6544 1.36522 51.4736 1.19253 51.2586 1.07276C51.0436 0.953 50.8016 0.890137 50.5556 0.890137C50.3095 0.890137 50.0675 0.953 49.8525 1.07276C49.6375 1.19253 49.4567 1.36522 49.3272 1.57447L46.7284 5.77369C46.3199 5.80772 45.9119 5.84756 45.5046 5.89322L42.1386 2.28267C41.9708 2.10235 41.7597 1.96796 41.5253 1.89228C41.291 1.8166 41.0411 1.80215 40.7996 1.8503C40.558 1.89846 40.3329 2.00763 40.1454 2.16741C39.958 2.32719 39.8146 2.53227 39.7288 2.76314L38.0046 7.37604C37.605 7.49049 37.2097 7.61197 36.8151 7.73619L32.8175 4.85924C32.6178 4.71488 32.3844 4.62416 32.1396 4.59578C31.8948 4.5674 31.6469 4.60229 31.4194 4.69713C31.1922 4.79151 30.9928 4.94226 30.84 5.13514C30.6873 5.32802 30.5862 5.55667 30.5464 5.79947L29.7534 10.6635C29.3862 10.8538 29.0233 11.0495 28.6612 11.2495L24.1765 9.20455C23.9526 9.1021 23.7062 9.05876 23.4609 9.07866C23.2155 9.09856 22.9793 9.18104 22.7749 9.31822C22.5698 9.45457 22.4031 9.64128 22.2908 9.86049C22.1785 10.0797 22.1243 10.3241 22.1335 10.5702L22.3054 15.5057C21.986 15.7614 21.6701 16.0213 21.3577 16.2854L16.5511 15.1526C16.3113 15.0964 16.0612 15.1023 15.8243 15.1696C15.5874 15.2369 15.3716 15.3635 15.1972 15.5374C15.0227 15.7114 14.8957 15.9272 14.8283 16.1642C14.7609 16.4012 14.7553 16.6515 14.812 16.8913L15.9444 21.6991C15.6815 22.0104 15.4218 22.3257 15.1667 22.6448L10.2308 22.4729C9.98495 22.4652 9.7412 22.5199 9.5223 22.632C9.30341 22.7441 9.11655 22.9099 8.9792 23.1139C8.84223 23.3186 8.75988 23.5549 8.73998 23.8003C8.72009 24.0458 8.7633 24.2922 8.86553 24.5163L10.9101 29.0022C10.7112 29.3624 10.5147 29.7257 10.3241 30.0944L5.46123 30.8854C5.21822 30.925 4.98936 31.0261 4.79636 31.179C4.60336 31.3319 4.45262 31.5315 4.35844 31.759C4.26425 31.9865 4.22975 32.2343 4.2582 32.4789C4.28665 32.7235 4.37711 32.9567 4.521 33.1565L7.39795 37.1526C7.27295 37.5471 7.15146 37.9432 7.03662 38.3428L2.42412 40.0675C2.19377 40.154 1.98931 40.2979 1.8301 40.4855C1.67088 40.6731 1.56217 40.8982 1.51426 41.1396C1.46635 41.381 1.48082 41.6306 1.5563 41.8648C1.63178 42.099 1.76578 42.31 1.94561 42.478L5.55381 45.8428C5.50889 46.2491 5.46904 46.6581 5.43467 47.0659L1.23584 49.6647C1.02663 49.7942 0.853999 49.9751 0.734356 50.1901C0.614712 50.4051 0.552024 50.6472 0.552247 50.8932C0.552247 51.3948 0.811231 51.8593 1.23623 52.121L5.43467 54.7198C5.46904 55.1288 5.50889 55.537 5.55381 55.9429L1.94522 59.3089C1.76506 59.4766 1.63078 59.6876 1.55512 59.9219C1.47946 60.1561 1.46493 60.4058 1.51292 60.6473C1.5609 60.8887 1.6698 61.1139 1.82928 61.3014C1.98876 61.4889 2.19352 61.6325 2.42412 61.7186L7.03662 63.4432C7.15146 63.8425 7.27295 64.239 7.39795 64.6335L4.521 68.63C4.37684 68.8297 4.28619 69.063 4.25767 69.3077C4.22915 69.5524 4.26372 69.8003 4.35807 70.0279C4.45243 70.2554 4.60344 70.455 4.79674 70.6077C4.99003 70.7604 5.21919 70.8612 5.4624 70.9003L10.3245 71.6913C10.5147 72.06 10.7097 72.4233 10.9104 72.785L8.86553 77.2694C8.76312 77.4934 8.7198 77.7399 8.7397 77.9854C8.7596 78.2309 8.84205 78.4672 8.9792 78.6718C9.11556 78.8767 9.30223 79.0433 9.52135 79.1556C9.74048 79.2678 9.98474 79.3219 10.2308 79.3128L15.1644 79.1401C15.4218 79.4608 15.6808 79.7753 15.9444 80.0878L14.812 84.8964C14.7553 85.1357 14.7609 85.3856 14.8284 85.6222C14.8958 85.8588 15.0228 86.0741 15.1972 86.2476C15.3711 86.4222 15.5869 86.5492 15.824 86.6164C16.061 86.6836 16.3114 86.6888 16.5511 86.6315L21.3577 85.4995C21.6702 85.7651 21.9866 86.0229 22.3058 86.2769L22.1339 91.214C22.125 91.46 22.1792 91.7042 22.2914 91.9233C22.4035 92.1424 22.5698 92.3292 22.7745 92.4659C22.9793 92.6027 23.2155 92.6847 23.4609 92.7043C23.7063 92.724 23.9526 92.6805 24.1765 92.578L28.6612 90.5347C29.0223 90.7353 29.3864 90.9305 29.7534 91.1202L30.5464 95.9815C30.5856 96.2247 30.6864 96.4538 30.8392 96.647C30.992 96.8402 31.1918 96.991 31.4194 97.0851C31.6469 97.1793 31.8947 97.2139 32.1394 97.1857C32.384 97.1575 32.6174 97.0673 32.8175 96.9237L36.8132 94.0448C37.2077 94.1698 37.6042 94.2921 38.0034 94.4069L39.728 99.0179C39.8139 99.2486 39.9575 99.4535 40.1452 99.613C40.3328 99.7724 40.5583 99.881 40.7999 99.9284C41.0412 99.9771 41.291 99.9629 41.5253 99.8873C41.7596 99.8116 41.9705 99.677 42.1378 99.4964L45.5038 95.8878C45.9101 95.9347 46.3186 95.9737 46.7276 96.0101L49.3265 100.208C49.4561 100.417 49.6369 100.59 49.8517 100.709C50.0665 100.829 50.3083 100.892 50.5542 100.892C50.8002 100.892 51.0421 100.829 51.2571 100.71C51.4721 100.59 51.653 100.418 51.7827 100.208L54.3815 96.0101C54.7905 95.9737 55.1987 95.9347 55.6046 95.8878L58.9698 99.4964C59.1371 99.6769 59.348 99.8114 59.5822 99.887C59.8164 99.9627 60.066 99.9769 60.3073 99.9284C60.5489 99.8808 60.7742 99.7721 60.9618 99.6127C61.1495 99.4534 61.2932 99.2485 61.3792 99.0179L63.1038 94.4069C63.503 94.2921 63.8999 94.1698 64.2944 94.0448L68.2909 96.9237C68.4908 97.0675 68.7242 97.1577 68.9688 97.186C69.2134 97.2142 69.4611 97.1795 69.6885 97.0851C69.916 96.9907 70.1155 96.8398 70.2682 96.6467C70.421 96.4535 70.5218 96.2246 70.5612 95.9815L71.3542 91.1202C71.721 90.93 72.0839 90.7323 72.446 90.5343L76.9308 92.578C77.1546 92.6808 77.401 92.7245 77.6465 92.7051C77.8921 92.6856 78.1285 92.6036 78.3334 92.4668C78.5382 92.33 78.7046 92.1431 78.8167 91.9238C78.9288 91.7045 78.9828 91.4601 78.9737 91.214L78.8018 86.2772C79.1214 86.023 79.437 85.7637 79.7483 85.4995L84.5554 86.6315C85.0436 86.7464 85.5554 86.6042 85.9081 86.2476C86.0825 86.0741 86.2095 85.8588 86.2769 85.6222C86.3443 85.3856 86.3499 85.1357 86.2932 84.8964L85.1612 80.0878C85.4249 79.7753 85.6847 79.4608 85.9386 79.1401L90.8745 79.3128C91.1205 79.3221 91.3648 79.268 91.5839 79.1559C91.8031 79.0437 91.9897 78.8772 92.1261 78.6722C92.2634 78.4675 92.346 78.231 92.3657 77.9853C92.3855 77.7397 92.3418 77.493 92.239 77.269L90.1952 72.7854C90.3948 72.4233 90.5909 72.06 90.78 71.6917L95.6432 70.9003C95.8864 70.8612 96.1154 70.7604 96.3085 70.6075C96.5015 70.4546 96.652 70.2546 96.7456 70.0268C96.8399 69.7995 96.8745 69.5518 96.8461 69.3073C96.8177 69.0629 96.7273 68.8297 96.5835 68.63L93.7065 64.6339C93.8307 64.2389 93.9522 63.8425 94.0679 63.4432L98.6796 61.7186C98.9104 61.6328 99.1154 61.4891 99.2748 61.3013C99.4342 61.1136 99.5428 60.8881 99.5901 60.6464C99.6387 60.4051 99.6245 60.1554 99.5489 59.9212C99.4732 59.687 99.3387 59.4761 99.1581 59.3089L95.5507 55.9429C95.5944 55.5366 95.6347 55.128 95.6698 54.7202L99.8682 52.121C100.078 51.9917 100.25 51.811 100.37 51.5961C100.49 51.3812 100.552 51.1392 100.552 50.8932C100.552 50.3929 100.294 49.9276 99.869 49.6647V49.6647ZM71.7706 84.4913C70.1675 84.1456 69.1479 82.5655 69.4921 80.9573C69.835 79.3511 71.414 78.3288 73.0167 78.6745C74.6198 79.0179 75.6409 80.6007 75.2972 82.2058C74.9534 83.8112 73.3729 84.8347 71.7706 84.4913ZM70.344 74.8433C69.9962 74.7686 69.637 74.7634 69.2871 74.8277C68.9372 74.892 68.6034 75.0247 68.3048 75.2182C68.0062 75.4116 67.7487 75.662 67.547 75.9551C67.3452 76.2481 67.2033 76.5781 67.1292 76.9261L65.6386 83.8819C61.039 85.9694 55.9315 87.1292 50.5522 87.1292C45.0499 87.1292 39.8311 85.912 35.1499 83.7354L33.6601 76.78C33.3468 75.3163 31.9077 74.3839 30.446 74.6979L24.3054 76.0167C23.1641 74.8421 22.1034 73.5918 21.1304 72.2745H51.0093C51.3472 72.2745 51.5726 72.2132 51.5726 71.9054V61.3362C51.5726 61.0288 51.3472 60.9675 51.0089 60.9675H42.271V54.2682H51.7222C52.5847 54.2682 56.3351 54.5143 57.5339 59.3081C57.9097 60.7823 58.7339 65.5776 59.2979 67.1128C59.8597 68.8347 62.1468 72.2741 64.5843 72.2741H79.4729C79.6421 72.2741 79.8225 72.255 80.0128 72.2206C78.9798 73.6235 77.8481 74.9511 76.6265 76.1932L70.3444 74.8433H70.344ZM29.0198 84.346C27.4163 84.6921 25.8378 83.6698 25.4929 82.0636C25.1499 80.4546 26.1694 78.8753 27.7726 78.5296C29.3761 78.1866 30.9554 79.2089 31.2991 80.8147C31.6421 82.4202 30.6218 84.0022 29.0194 84.346H29.0198ZM17.6851 38.385C18.3503 39.8858 17.6733 41.6448 16.1745 42.3089C14.6757 42.9749 12.9214 42.2971 12.2565 40.7952C11.5913 39.2932 12.2679 37.5374 13.7671 36.8714C14.1237 36.7132 14.5079 36.6269 14.8979 36.6174C15.2879 36.6078 15.6759 36.6753 16.0398 36.8158C16.4037 36.9564 16.7363 37.1673 17.0186 37.4365C17.3009 37.7056 17.5274 38.0279 17.6851 38.3846V38.385ZM14.2015 46.6428L20.5983 43.8003C21.255 43.5081 21.7689 42.9673 22.027 42.2965C22.2851 41.6257 22.2664 40.8799 21.9749 40.2229L20.6577 37.244H25.839V60.5987H15.3854C14.4588 57.3367 13.99 53.9617 13.9925 50.5706C13.9925 49.2432 14.064 47.9315 14.2015 46.6425V46.6428ZM42.2726 44.3745V37.4905H54.6108C55.2483 37.4905 59.1108 38.2272 59.1108 41.1155C59.1108 43.5135 56.1483 44.3733 53.712 44.3733H42.2726V44.3745ZM87.1132 50.5706C87.1132 51.4839 87.0796 52.3878 87.0128 53.2846H83.2616C82.8862 53.2846 82.735 53.5315 82.735 53.8991V55.6218C82.735 59.6764 80.4487 60.5585 78.4452 60.7831C76.5374 60.9979 74.4218 59.9843 74.1612 58.8167C73.0354 52.4862 71.16 51.1343 68.1983 48.7979C71.8741 46.4639 75.6983 43.0206 75.6983 38.4112C75.6983 33.4346 72.2866 30.2999 69.9608 28.7628C66.6983 26.612 63.0858 26.1807 62.1112 26.1807H23.3175C28.578 20.3096 35.7077 16.1506 43.7714 14.6374L48.344 19.4342C48.5894 19.6917 48.8831 19.8983 49.2083 20.0421C49.5336 20.1859 49.884 20.2642 50.2396 20.2724C50.5951 20.2806 50.9488 20.2186 51.2804 20.0899C51.6119 19.9612 51.9148 19.7684 52.1718 19.5225L57.2882 14.6288C68.0089 16.6249 77.0858 23.2983 82.3167 32.4542L78.814 40.3655C78.2093 41.7346 78.8265 43.3358 80.1917 43.9425L86.9354 46.9378C87.0518 48.135 87.1132 49.3444 87.1132 50.5706ZM48.346 10.5565C49.5308 9.42174 51.4101 9.46666 52.5444 10.653C53.6765 11.8428 53.6335 13.7241 52.446 14.8581C51.2612 15.9932 49.3819 15.9491 48.2476 14.7604C47.704 14.1895 47.4091 13.4262 47.4276 12.6381C47.446 11.85 47.7763 11.1014 48.346 10.5565V10.5565ZM83.105 38.5292C83.2626 38.1724 83.489 37.8502 83.7712 37.5811C84.0535 37.3119 84.3861 37.1011 84.7499 36.9606C85.1137 36.8201 85.5017 36.7527 85.8916 36.7624C86.2815 36.772 86.6657 36.8584 87.0222 37.0167C88.5214 37.6815 89.1979 39.4397 88.5327 40.9405C88.3752 41.2974 88.1488 41.6198 87.8665 41.8891C87.5842 42.1584 87.2516 42.3694 86.8877 42.51C86.5238 42.6506 86.1357 42.7181 85.7456 42.7085C85.3556 42.6989 84.9713 42.6125 84.6147 42.4542C83.1175 41.7889 82.4409 40.0323 83.105 38.5292V38.5292Z" fill="black"/>
</svg>
